<svg width="78" height="72" viewBox="0 0 78 72" fill="none" xmlns="http://www.w3.org/2000/svg">
<rect x="0.333333" y="0.333333" width="77.3333" height="71.3333" rx="13" fill="#A9A8DD" stroke="black" stroke-width="0.666667"/>
<path d="M59.7261 40.8679H58.4162L57.952 40.4048C59.5769 38.4494 60.5552 35.9108 60.5552 33.1492C60.5552 26.9914 55.7301 22 49.7776 22C43.825 22 39 26.9914 39 33.1492C39 39.307 43.825 44.2985 49.7776 44.2985C52.4471 44.2985 54.9011 43.2865 56.7913 41.6055L57.239 42.0858V43.4408L65.5294 52L68 49.4443L59.7261 40.8679ZM49.7776 40.8679C45.6489 40.8679 42.3162 37.4202 42.3162 33.1492C42.3162 28.8782 45.6489 25.4305 49.7776 25.4305C53.9062 25.4305 57.239 28.8782 57.239 33.1492C57.239 37.4202 53.9062 40.8679 49.7776 40.8679Z" fill="black"/>
<path d="M22.9333 23.0461C25.84 23.0461 28.12 23.6461 29.7733 24.8461C31.4533 26.0194 32.2933 27.8594 32.2933 30.3661C32.2933 31.8861 31.9466 33.2061 31.2533 34.3261C30.56 35.4461 29.5866 36.3261 28.3333 36.9661C27.1066 37.6061 25.6533 37.9661 23.9733 38.0461L23.4133 36.0461C25.36 36.0994 27.1066 36.4461 28.6533 37.0861C30.2 37.7261 31.4266 38.6194 32.3333 39.7661C33.24 40.9128 33.6933 42.2728 33.6933 43.8461C33.6933 45.2861 33.4266 46.5261 32.8933 47.5661C32.36 48.5794 31.64 49.4194 30.7333 50.0861C29.8266 50.7261 28.8 51.2061 27.6533 51.5261C26.5066 51.8194 25.32 51.9661 24.0933 51.9661H15.4933V23.0461H22.9333ZM23.7333 35.7261C25.3333 35.7261 26.4933 35.2861 27.2133 34.4061C27.9333 33.4994 28.2933 32.4061 28.2933 31.1261C28.2933 29.6061 27.8266 28.4994 26.8933 27.8061C25.96 27.1128 24.7066 26.7661 23.1333 26.7661H19.3733V35.7261H23.7333ZM23.8933 48.3661C24.96 48.3661 25.9333 48.2061 26.8133 47.8861C27.72 47.5661 28.4266 47.0728 28.9333 46.4061C29.4666 45.7394 29.7333 44.8994 29.7333 43.8861C29.7333 42.7661 29.4266 41.8861 28.8133 41.2461C28.2266 40.6061 27.4666 40.1528 26.5333 39.8861C25.6 39.5928 24.64 39.4461 23.6533 39.4461H19.3733V48.3661H23.8933Z" fill="black"/>
</svg>
